/* XPM */
static char * error_xpm[] = {
"16 16 11 1",
" 	c None",
".	c #FFFFFF",
"+	c #F0ACAA",
"@	c #FAE3E3",
"#	c #D30700",
"$	c #DC3E39",
"%	c #D8231D",
"&	c #E15955",
"*	c #EB918E",
"=	c #E67572",
"-	c #F5C8C7",
"................",
"................",
"......+++++++...",
".....@######$...",
".....+#%&&&&*...",
".....=#+........",
".....&#+........",
".....%#####&....",
".....######*....",
"....-#&.........",
"....+#=.........",
"....&#+.........",
"....&######+....",
"....#######+....",
"................",
"................"};
