/* XPM */
static char * finished_xpm[] = {
"16 16 11 1",
" 	c None",
".	c #FFFFFF",
"+	c #DEC7F3",
"@	c #CEAAEE",
"#	c #BD8EE8",
"$	c #9D55DD",
"%	c #AD72E2",
"&	c #8C39D7",
"*	c #6C00CC",
"=	c #EEE3F9",
"-	c #7C1DD1",
"................",
".....+@@@#$$%...",
".....&******$...",
".....**$$$$$#...",
"....=**.........",
"....@**.........",
"....#*$..+@=....",
"....$******+....",
"....&******.....",
"....**+.........",
"...=**..........",
"...@*-..........",
"...%*$..........",
"...$*%..........",
"...%$+..........",
"................"};
