/* XPM */
static char * running_xpm[] = {
"16 16 10 1",
" 	c None",
".	c #FFFFFF",
"+	c #AABDF0",
"@	c #E3E9FA",
"#	c #003BD3",
"$	c #1D51D8",
"%	c #557CE1",
"&	c #7292E6",
"*	c #3966DC",
"=	c #C7D3F5",
"................",
"................",
".....++++++.....",
"....@######$....",
"....+#$%%%##+...",
"....&#+...%#+...",
"....%#+...$#....",
"....$#+++*#&....",
"....######%.....",
"...=#$%%*#$.....",
"...+#&...##.....",
"...%#+...##.....",
"...%#=..+#%.....",
"...##...+#*.....",
"................",
"................"};
