/* XPM */
static char * waiting_xpm[] = {
"16 16 11 1",
" 	c None",
".	c #FFFFFF",
"+	c #007C0E",
"@	c #AAD3AE",
"#	c #E3F0E4",
"$	c #C7E2CA",
"%	c #8EC494",
"&	c #1D8A29",
"*	c #399943",
"=	c #55A75E",
"-	c #72B679",
"................",
"................",
"................",
"..++@.#++@.#++$.",
"..++@.%++@.%+&..",
"..&+@.*++@.*+%..",
"..=+@#+*+@#++...",
"..=+@%+%+@-+-...",
"..=+@**@+@&+$...",
"..=+%+%@+-+*....",
"..=+*+#@+&+%....",
"..-++*.@+++.....",
"..@++@.@++-.....",
"..$==..$==$.....",
"................",
"................"};
