/* XPM */
static char * weasel_xpm[] = {
"32 32 142 2",
"  	c None",
". 	c #A38F74",
"+ 	c #917F55",
"@ 	c #937D5E",
"# 	c #917C3F",
"$ 	c #8D7333",
"% 	c #7E642D",
"& 	c #5F4C22",
"* 	c #6F602F",
"= 	c #A09053",
"- 	c #8D7132",
"; 	c #72592B",
"> 	c #735B23",
", 	c #5D4818",
"' 	c #43320C",
") 	c #6C5724",
"! 	c #7B6832",
"~ 	c #998242",
"{ 	c #8F7739",
"] 	c #83672B",
"^ 	c #6A511F",
"/ 	c #644E1B",
"( 	c #342505",
"_ 	c #2A1C03",
": 	c #503C10",
"< 	c #654F1D",
"[ 	c #775F28",
"} 	c #806B33",
"| 	c #8A743A",
"1 	c #977F3F",
"2 	c #957937",
"3 	c #907433",
"4 	c #876B2D",
"5 	c #7E652A",
"6 	c #7D672E",
"7 	c #6F592C",
"8 	c #634E1C",
"9 	c #503F14",
"0 	c #453710",
"a 	c #463915",
"b 	c #5B491C",
"c 	c #574416",
"d 	c #564114",
"e 	c #5F4A19",
"f 	c #6C541F",
"g 	c #765C25",
"h 	c #7F652A",
"i 	c #80692E",
"j 	c #846C2F",
"k 	c #8A6E30",
"l 	c #8C6F2F",
"m 	c #85692C",
"n 	c #7B6127",
"o 	c #735A23",
"p 	c #654F1C",
"q 	c #745B24",
"r 	c #765F28",
"s 	c #725F2C",
"t 	c #6D5622",
"u 	c #604A19",
"v 	c #5A4616",
"w 	c #6F5721",
"x 	c #715822",
"y 	c #6C5521",
"z 	c #725A23",
"A 	c #6C5520",
"B 	c #644D1B",
"C 	c #4F3C10",
"D 	c #554213",
"E 	c #755D25",
"F 	c #615123",
"G 	c #7E6B37",
"H 	c #776029",
"I 	c #6D5621",
"J 	c #66501D",
"K 	c #6E5721",
"L 	c #67511D",
"M 	c #594415",
"N 	c #5B4616",
"O 	c #503E10",
"P 	c #46340A",
"Q 	c #392806",
"R 	c #2D1E03",
"S 	c #715923",
"T 	c #785F26",
"U 	c #765D25",
"V 	c #5B491A",
"W 	c #83703C",
"X 	c #846A2F",
"Y 	c #786027",
"Z 	c #725921",
"` 	c #664F1C",
" .	c #403009",
"..	c #49380E",
"+.	c #44330C",
"@.	c #43330D",
"#.	c #43320D",
"$.	c #372807",
"%.	c #796026",
"&.	c #69531F",
"*.	c #564214",
"=.	c #493B13",
"-.	c #6F5C29",
";.	c #755F28",
">.	c #715922",
",.	c #41310C",
"'.	c #56461B",
").	c #5C4B21",
"!.	c #4D3D13",
"~.	c #48380F",
"{.	c #48370F",
"].	c #725922",
"^.	c #6B541E",
"/.	c #5D4817",
"(.	c #4A380E",
"_.	c #52441E",
":.	c #6E5A29",
"<.	c #4F4119",
"[.	c #38301A",
"}.	c #8E7D47",
"|.	c #634D1B",
"1.	c #544924",
"2.	c #30240B",
"3.	c #33260B",
"4.	c #4F4019",
"5.	c #41320C",
"6.	c #3E2E07",
"7.	c #50421C",
"8.	c #735F2C",
"9.	c #75622F",
"0.	c #5E4B1E",
"a.	c #AAAA86",
"b.	c #826B33",
"c.	c #51421E",
"d.	c #171712",
"e.	c #211B10",
"f.	c #665322",
"g.	c #493913",
"h.	c #56461F",
"i.	c #6C603B",
"j.	c #7D6A38",
"k.	c #5A4922",
"                                                                ",
"                                                                ",
"                                                                ",
"                                                                ",
"                                                                ",
"                                                                ",
"                                                                ",
"                                                                ",
"                                                                ",
"      . + @                                                     ",
"      # $ % & *                                                 ",
"    = - ; > , ' ) !                     ~                       ",
"    { ] ^ / ( _ : < [ } |         1 2 3 4 5 6                   ",
"    7 8 9 0 a b c d e f g h i j k l m n o p q r                 ",
"                s t u v / w x y q z A B C D > E F               ",
"                  G H I J K L M N O P Q R S T U V               ",
"                    W X Y Z `  ...+.@.#.$.%.q &.*.=.            ",
"                      -.;.>./ ,.'.).!.~.{.].^./.(._.:.          ",
"                      <.[.}.|.        1.2.3.4.5.6.7.  8.9.      ",
"                      0.a.b.c.        d.e.    f.g.              ",
"                    h.i.j.k.                                    ",
"                                                                ",
"                                                                ",
"                                                                ",
"                                                                ",
"                                                                ",
"                                                                ",
"                                                                ",
"                                                                ",
"                                                                ",
"                                                                ",
"                                                                "};
