/* XPM */
static char * weasel_xpm[] = {
"32 32 193 2",
"  	c #EBF2C6",
". 	c #DBDCB4",
"+ 	c #CDCAA1",
"@ 	c #BFB793",
"# 	c #E0E5B8",
"$ 	c #EAF1C6",
"% 	c #EAF1C5",
"& 	c #D6D6A8",
"* 	c #8E773F",
"= 	c #856C36",
"- 	c #75603A",
"; 	c #B2B083",
"> 	c #E9F0C4",
", 	c #EBF2C7",
"' 	c #E4EABF",
") 	c #967F40",
"! 	c #896E33",
"~ 	c #7C6328",
"{ 	c #6E5721",
"] 	c #49380F",
"^ 	c #80703D",
"/ 	c #C3C191",
"( 	c #E6EBBE",
"_ 	c #D7D7A6",
": 	c #DADDAD",
"< 	c #EBF2C5",
"[ 	c #D3D2A2",
"} 	c #8C6F30",
"| 	c #634A1F",
"1 	c #6C5420",
"2 	c #523F12",
"3 	c #241702",
"4 	c #4E3A0F",
"5 	c #66501D",
"6 	c #887640",
"7 	c #BAB483",
"8 	c #D3D3A5",
"9 	c #E6ECBF",
"0 	c #E7EDC0",
"a 	c #CAC794",
"b 	c #AC9B5F",
"c 	c #967B39",
"d 	c #8F7332",
"e 	c #866C2E",
"f 	c #94834B",
"g 	c #D6D8AA",
"h 	c #E6EDC2",
"i 	c #998B5E",
"j 	c #7B6128",
"k 	c #654F1C",
"l 	c #4D3B0F",
"m 	c #372908",
"n 	c #43340F",
"o 	c #4C3A0F",
"p 	c #543F13",
"q 	c #624D1B",
"r 	c #715923",
"s 	c #7A6127",
"t 	c #897034",
"u 	c #A3945D",
"v 	c #A2945C",
"w 	c #8F783A",
"x 	c #907333",
"y 	c #8D7030",
"z 	c #84692C",
"A 	c #7A5F26",
"B 	c #6F5721",
"C 	c #735B24",
"D 	c #7E6831",
"E 	c #D3D5A8",
"F 	c #E9F0C5",
"G 	c #CBCEA5",
"H 	c #A29E74",
"I 	c #AAAA82",
"J 	c #C7CAA0",
"K 	c #E6ECC1",
"L 	c #C6C699",
"M 	c #7E6D3C",
"N 	c #67521F",
"O 	c #5B4616",
"P 	c #6E5621",
"Q 	c #755B23",
"R 	c #745B24",
"S 	c #7B6127",
"T 	c #7C6227",
"U 	c #775D25",
"V 	c #705721",
"W 	c #614C1A",
"X 	c #503E11",
"Y 	c #6F5821",
"Z 	c #755E25",
"` 	c #7D7041",
" .	c #E7EDC1",
"..	c #A49B6A",
"+.	c #745D27",
"@.	c #67511D",
"#.	c #634C1A",
"$.	c #6C5520",
"%.	c #604A19",
"&.	c #634D1B",
"*.	c #5E4918",
"=.	c #554213",
"-.	c #4A370D",
";.	c #382705",
">.	c #594617",
",.	c #755D24",
"'.	c #795E26",
").	c #634F1E",
"!.	c #CCD0A7",
"~.	c #B0A978",
"{.	c #836A2F",
"].	c #725B23",
"^.	c #705822",
"/.	c #6B541F",
"(.	c #4B380E",
"_.	c #49370D",
":.	c #423109",
"<.	c #3E2D09",
"[.	c #3B2A08",
"}.	c #312305",
"|.	c #6B5321",
"1.	c #775E26",
"2.	c #705922",
"3.	c #5F4A19",
"4.	c #635B34",
"5.	c #E1E7BB",
"6.	c #968958",
"7.	c #80672D",
"8.	c #6A531E",
"9.	c #42320B",
"0.	c #503E13",
"a.	c #503E14",
"b.	c #4F3E13",
"c.	c #4E3D13",
"d.	c #47370E",
"e.	c #6D551F",
"f.	c #725A22",
"g.	c #654E1C",
"h.	c #533F13",
"i.	c #564921",
"j.	c #7C6E3E",
"k.	c #DADFB3",
"l.	c #B4B48A",
"m.	c #433311",
"n.	c #776738",
"o.	c #69531E",
"p.	c #73673F",
"q.	c #C4C59A",
"r.	c #E2E8BC",
"s.	c #C0C197",
"t.	c #746C45",
"u.	c #43350F",
"v.	c #40300D",
"w.	c #625328",
"x.	c #48360C",
"y.	c #423108",
"z.	c #7A724A",
"A.	c #C7C698",
"B.	c #7E6D3B",
"C.	c #B9B687",
"D.	c #E8EEC2",
"E.	c #8D8457",
"F.	c #584F31",
"G.	c #A99D69",
"H.	c #604B1C",
"I.	c #B8BA93",
"J.	c #E2E8BF",
"K.	c #6D705D",
"L.	c #1F1B14",
"M.	c #807E60",
"N.	c #E7EEC2",
"O.	c #9B9569",
"P.	c #45340C",
"Q.	c #95936E",
"R.	c #E1E6BA",
"S.	c #ABA576",
"T.	c #928859",
"U.	c #B2AD7F",
"V.	c #D7DCB4",
"W.	c #6B5E34",
"X.	c #6C5D33",
"Y.	c #998C5C",
"Z.	c #725D28",
"`.	c #A4A27C",
" +	c #DEE4BB",
".+	c #B8BD99",
"++	c #CDD2AA",
"@+	c #B7B58A",
"#+	c #8E8458",
"$+	c #B0B08A",
"%+	c #E5ECC1",
"&+	c #C7CAA2",
"*+	c #CDD1A9",
"                                                                ",
"                                                                ",
"                                                                ",
"                                                                ",
"                                                                ",
"                                                                ",
"                                                                ",
"                                                                ",
"                                                                ",
"      . + @ #                                                   ",
"  $ % & * = - ; >                                               ",
", $ ' ) ! ~ { ] ^ / %                 ( _ : <                   ",
"    [ } | 1 2 3 4 5 6 7 8 9     0 a b c d e f g                 ",
"  h i j k l m n o p q r s t u v w x y z A B C D E               ",
"  F G H I J K L M N O O q P Q R S T U V W X Y Z ` ,             ",
"                 ...+.@.#.$.$.%.&.*.=.-.;.>.,.'.).!.            ",
"                    ~.{.].^./.(._.:.<.[.}.|.1.2.3.4.5.          ",
"                      6.7.C 8.9.0.a.b.c.d.e.f.g.h.i.j.k.        ",
"                      l.m.n.o.p.q.r.s.t.u.v.w.x.y.z.A.B.C.D.    ",
"                    % E.F.G.H.I.    J.K.L.M.N.O.P.Q.  R.S.T.U.> ",
"                  V.W.X.Y.Z.`.       +.+++, @+#+$+              ",
"                      %+&+*+                                    ",
"                                                                ",
"                                                                ",
"                                                                ",
"                                                                ",
"                                                                ",
"                                                                ",
"                                                                ",
"                                                                ",
"                                                                ",
"                                                                "};
